<svg id="Layer_1" data-name="Layer 1" xmlns="http://www.w3.org/2000/svg" viewBox="0 0 203.85 190.34"><path d="M203.85,130s-11.59,19-32.13,19.78H115.45c-49.71-.05-64.61-2.63-105.15,40.54H143.22a49.51,49.51,0,0,0,42.12-23.51l.19.09,1.69-3.42.34-.65,6.48-13h0Z"/><path d="M19,155.76c8.28-10.19,28.14-33.37,78.9-25C61.46,124.26,45.42,107.47,52.12,89,39.72,119.77,0,115,0,115,21.89,117.89,28.05,134.84,19,155.76Z"/><path d="M108.37,109.9h0l41.18-82.81.2-.4C161.73,2.78,182.07,0,182.07,0H131.89A37.16,37.16,0,0,0,98.6,20.64L74.4,69.28C65,88.55,82.72,108.59,108.37,109.9Z"/></svg>